<?xml version="1.0" encoding="utf-8"?>
<svg viewBox="0 0 500 500" xmlns="http://www.w3.org/2000/svg" xmlns:bx="https://boxy-svg.com">
  <defs>
    <pattern id="pattern-0" x="0" y="0" width="20" height="20" patternUnits="userSpaceOnUse" viewBox="0 0 100 100">
      <path d="M 0 0 L 50 0 L 50 100 L 0 100 Z" style="fill: black;"/>
    </pattern>
    <radialGradient id="gradient-3" gradientUnits="userSpaceOnUse" cx="249.302" cy="249.647" r="249.934" gradientTransform="matrix(1, 0, 0, 1, 0, -0.000008)">
      <stop offset="0" style="stop-color: rgb(17, 219, 61);"/>
      <stop offset="1" style="stop-color: rgb(0, 92, 0);"/>
    </radialGradient>
  </defs>
  <rect x="-0.632" y="-0.287" width="499.867" height="499.867" style="fill: url(#gradient-3);"/>
  <path style="stroke-linecap: round; stroke-width: 11; fill: none; stroke: rgb(0, 0, 0);" d="M 200.072 240.839 C 225.223 243.232 278.006 239.8 300.966 241.352 C 350.398 244.694 296.379 86.593 344.833 83.906 C 369.342 82.548 416.498 80.95 450.778 80.934" bx:origin="0.739 0.863"/>
  <path style="stroke-linecap: round; stroke-width: 11; fill: none; stroke: rgb(0, 0, 0);" d="M 198.847 281.879 C 223.998 279.677 294.002 277.963 324.608 278.968 C 377.063 280.69 323.841 123.698 370.779 121.012 C 395.286 119.609 413.671 118.056 447.951 118.04" bx:origin="0.567 0.639"/>
  <path style="stroke-linecap: round; stroke-width: 11; fill: none; stroke: rgb(0, 0, 0);" d="M 200.148 316.32 C 225.299 318.712 320.191 312.935 350.762 314.911 C 404.733 318.398 359.97 157.99 397.866 154.342 C 428.347 151.408 415.016 151.386 449.296 151.37" bx:origin="0.387 0.438"/>
  <path style="stroke-linecap: round; stroke-width: 11; fill: none; stroke: rgb(0, 0, 0);" d="M 201.513 349.274 C 226.664 351.666 339.598 345.889 370.169 347.865 C 424.14 351.352 389.895 192.665 415.611 189.979 C 440.073 187.748 413.082 190.214 447.362 190.198" bx:origin="0.217 0.137"/>
  <path style="fill: rgb(216, 216, 216); stroke: rgb(0, 0, 0);" d="M 229.008 413.168"/>
  <ellipse style="stroke: rgb(0, 0, 0);" transform="matrix(-0.789948, 0.613173, -0.501807, -0.876398, 465.196942, 524.899264)" cx="90.455" cy="386.054" rx="10.871" ry="11.409"/>
  <ellipse style="stroke: rgb(0, 0, 0);" transform="matrix(-0.789951, 0.613171, -0.501807, -0.876394, 464.569383, 563.88228)" cx="90.455" cy="386.054" rx="10.871" ry="11.409"/>
  <ellipse style="stroke: rgb(0, 0, 0);" transform="matrix(-0.789946, 0.613174, -0.501806, -0.876394, 465.527126, 598.885826)" cx="90.455" cy="386.055" rx="10.871" ry="11.409"/>
  <ellipse style="stroke: rgb(0, 0, 0);" transform="matrix(-0.789946, 0.613174, -0.501806, -0.876394, 466.936336, 631.373558)" cx="90.455" cy="386.055" rx="10.871" ry="11.409"/>
  <path style="fill: rgb(216, 216, 216); stroke: rgb(0, 0, 0);" d="M 49.466 361.037"/>
  <path style="fill: rgb(216, 216, 216); stroke: rgb(0, 0, 0);" d="M 50.311 345.818"/>
  <path style="fill: rgb(216, 216, 216); stroke: rgb(0, 0, 0);" d="M 53.975 318.197"/>
  <path style="fill: rgb(216, 216, 216); stroke: rgb(0, 0, 0);" d="M 157.826 389.848"/>
  <ellipse style="stroke: rgb(0, 0, 0);" transform="matrix(-0.789952, 0.61317, -0.501804, -0.876397, 718.590137, 363.376766)" cx="90.455" cy="386.056" rx="10.871" ry="11.409"/>
  <ellipse style="stroke: rgb(0, 0, 0);" transform="matrix(-0.789949, 0.613171, -0.501804, -0.876397, 718.280192, 400.843664)" cx="90.455" cy="386.052" rx="10.871" ry="11.409"/>
  <ellipse style="stroke: rgb(0, 0, 0);" transform="matrix(-0.789949, 0.613172, -0.501804, -0.876398, 718.866801, 432.598473)" cx="90.455" cy="386.052" rx="10.871" ry="11.409"/>
  <ellipse style="stroke: rgb(0, 0, 0);" transform="matrix(-0.789947, 0.613172, -0.501804, -0.876398, 719.160545, 472.206956)" cx="90.455" cy="386.053" rx="10.871" ry="11.409"/>
  <path d="M 370.846 142.04 L 441.124 246.587 L 300.568 246.587 L 370.846 142.04 Z" transform="matrix(0.00659, 0.999978, -0.999963, 0.008934, 313.686413, -153.51856)" style="fill: none; stroke: rgb(0, 0, 0); stroke-width: 14;" bx:shape="triangle 300.568 142.04 140.556 104.547 0.5 0 1@45277dfc"/>
  <path d="M 370.846 142.04 L 441.124 246.587 L 300.568 246.587 L 370.846 142.04 Z" transform="matrix(0.00659, 0.999978, -0.999963, 0.008934, 314.359814, -7.974058)" style="fill: none; stroke: rgb(0, 0, 0); stroke-width: 14;" bx:shape="triangle 300.568 142.04 140.556 104.547 0.5 0 1@45277dfc"/>
  <path style="fill: rgb(216, 216, 216); stroke: rgb(0, 0, 0); stroke-width: 14;" d="M 69.11 291.906 L 14.819 253.978"/>
  <path style="fill: rgb(216, 216, 216); stroke: rgb(0, 0, 0); stroke-width: 14;" d="M 69.11 292.96 L 16.629 327.727"/>
  <text x="153.672" y="427.302" transform="matrix(0.883298, 0, 0, 0.952171, 45.219109, 42.489826)" style="fill: rgb(255, 255, 255); font-family: sans-serif; font-size: 53px; white-space: pre;">BLE Control</text>
  <path transform="matrix(-2.213463, -0.456233, -0.924, -1.399142, 971.038574, 519.309387)" d="M 262.854 167.275 L 273.146 167.275 L 275.419 182.191 A 27.817 27.817 0 0 1 281.711 184.797 L 293.865 175.857 L 301.143 183.135 L 292.203 195.289 A 27.817 27.817 0 0 1 294.809 201.581 L 309.725 203.854 L 309.725 214.146 L 294.809 216.419 A 27.817 27.817 0 0 1 292.203 222.711 L 301.143 234.865 L 293.865 242.143 L 281.711 233.203 A 27.817 27.817 0 0 1 275.419 235.809 L 273.146 250.725 L 262.854 250.725 L 260.581 235.809 A 27.817 27.817 0 0 1 254.289 233.203 L 242.135 242.143 L 234.857 234.865 L 243.797 222.711 A 27.817 27.817 0 0 1 241.191 216.419 L 226.275 214.146 L 226.275 203.854 L 241.191 201.581 A 27.817 27.817 0 0 1 243.797 195.289 L 234.857 183.135 L 242.135 175.857 L 254.289 184.797 A 27.817 27.817 0 0 1 260.581 182.191 Z M 268 195.092 A 13.908 13.908 0 0 0 268 222.908 A 13.908 13.908 0 0 0 268 195.092" bx:shape="cog 268 209 13.908 27.817 41.725 0.375 8 1@a3d9b1f0"/>
</svg>